<svg width="32" height="32" viewBox="0 0 32 32" fill="none" xmlns="http://www.w3.org/2000/svg">
    <g id="Icons / ic-close">
        <path id="Close" fill-rule="evenodd" clip-rule="evenodd" d="M7.0634 24.9312C7.58331 25.4511 8.43214 25.4723 8.94144 24.963L15.9973 17.9071L22.8517 24.7614C23.361 25.2707 24.231 25.2707 24.7509 24.7508C25.2708 24.2309 25.2602 23.3714 24.7509 22.8621L17.8966 16.0078L24.9631 8.94132C25.4724 8.43202 25.4512 7.58319 24.9313 7.06328C24.4114 6.54337 23.5732 6.53276 23.0639 7.04206L15.9973 14.1086L9.13243 7.24366C8.62313 6.73436 7.76369 6.72375 7.24378 7.24366C6.72387 7.76357 6.72387 8.63362 7.23317 9.14292L14.0981 16.0078L7.04218 23.0637C6.53288 23.573 6.54349 24.4113 7.0634 24.9312Z" fill="#1A1A1A"/>
    </g>
</svg>
