<svg width="24" height="24" viewBox="0 0 24 24" fill="none" xmlns="http://www.w3.org/2000/svg">
    <g id="Icons / ic-close-input">
        <path id="&#208;&#161;lose" fill-rule="evenodd" clip-rule="evenodd" d="M12 20C16.3765 20 20 16.3765 20 12C20 7.63137 16.3686 4 11.9922 4C7.62353 4 4 7.63137 4 12C4 16.3765 7.63137 20 12 20Z" fill="#CFD8DC"/>
        <path id="Path" fill-rule="evenodd" clip-rule="evenodd" d="M14.8077 15.4823C14.6195 15.4823 14.4548 15.4039 14.3372 15.2863L11.9921 12.9333L9.6548 15.2863C9.53716 15.4118 9.37245 15.4823 9.18421 15.4823C8.82343 15.4823 8.52539 15.1843 8.52539 14.8157C8.52539 14.6353 8.59598 14.4784 8.72147 14.3608L11.0666 12.0078L8.72147 9.65489C8.59598 9.54509 8.52539 9.38038 8.52539 9.19999C8.52539 8.83921 8.82343 8.54901 9.18421 8.54901C9.37245 8.54901 9.52147 8.6196 9.63912 8.74509L11.9921 11.0902L14.3607 8.73725C14.494 8.59607 14.643 8.53333 14.8156 8.53333C15.1842 8.53333 15.4744 8.83136 15.4744 9.19215C15.4744 9.37254 15.4195 9.52156 15.2783 9.64705L12.9254 12.0078L15.2705 14.3451C15.396 14.4706 15.4666 14.6274 15.4666 14.8157C15.4666 15.1843 15.1764 15.4823 14.8077 15.4823Z" fill="white"/>
    </g>
</svg>
