<svg width="24" height="24" viewBox="0 0 24 24" fill="none" xmlns="http://www.w3.org/2000/svg">
    <g id="Icons / ic-down-arrow">
        <path id="Down arrow" fill-rule="evenodd" clip-rule="evenodd" d="M5 8.93242C5 8.40744 5.41037 8 5.93123 8C6.19166 8 6.42841 8.10186 6.60992 8.28208L12.0079 13.7669L17.3901 8.28208C17.5716 8.10186 17.8162 8 18.0688 8C18.5896 8 19 8.40744 19 8.93242C19 9.18315 18.9053 9.40255 18.7317 9.57493L12.7339 15.6709C12.5287 15.8903 12.2762 16 12 16C11.7238 16 11.487 15.8903 11.274 15.6787L5.26832 9.58276C5.0947 9.40255 5 9.18315 5 8.93242Z" fill="#1A1A1A"/>
    </g>
</svg>
