<svg width="15" height="14" viewBox="0 0 15 14" fill="none" xmlns="http://www.w3.org/2000/svg">
    <g id="Icons / ic-left-arrow">
        <path id="Left arrow" fill-rule="evenodd" clip-rule="evenodd" d="M9.28938 11.0834C9.59562 11.0834 9.83329 10.844 9.83329 10.5401C9.83329 10.3882 9.77387 10.2501 9.66875 10.1442L6.46927 6.99542L9.66875 3.85581C9.77387 3.74993 9.83329 3.60722 9.83329 3.4599C9.83329 3.15607 9.59562 2.91669 9.28938 2.91669C9.14312 2.91669 9.01514 2.97193 8.91459 3.07321L5.35859 6.57189C5.23062 6.69158 5.16663 6.8389 5.16663 7.00002C5.16663 7.16114 5.23062 7.29925 5.35402 7.42355L8.91002 10.9268C9.01514 11.0281 9.14312 11.0834 9.28938 11.0834Z" fill="#7B8E98"/>
    </g>
</svg>
