<svg width="16" height="16" viewBox="0 0 16 16" fill="none" xmlns="http://www.w3.org/2000/svg">
    <g id="Icons / ic-phone">
        <path id="Phone" fill-rule="evenodd" clip-rule="evenodd" d="M11.9114 14.6673C13.1043 14.6673 13.8882 14.3469 14.5767 13.5699C14.6312 13.5153 14.6858 13.454 14.7335 13.3994C15.1425 12.9427 15.3333 12.4928 15.3333 12.0634C15.3333 11.5726 15.047 11.1159 14.4404 10.6933L12.4567 9.31633C11.8432 8.8937 11.1275 8.84599 10.5549 9.41176L10.03 9.93664C9.87321 10.0934 9.73688 10.1002 9.58691 10.0048C9.21881 9.77304 8.4758 9.12547 7.97137 8.62104C7.43967 8.09617 6.92843 7.50995 6.65576 7.0805C6.56714 6.92372 6.57396 6.79421 6.73074 6.63743L7.24881 6.11255C7.8214 5.53996 7.77369 4.81741 7.35106 4.21074L5.9741 2.22712C5.55147 1.62045 5.09475 1.34097 4.60395 1.33415C4.17451 1.32734 3.72461 1.52502 3.26789 1.93401C3.20654 1.98854 3.15201 2.03626 3.09748 2.08397C2.32038 2.77926 2 3.56317 2 4.74243C2 6.69196 3.19973 9.06412 5.4015 11.2659C7.58964 13.454 9.96864 14.6673 11.9114 14.6673ZM11.9182 13.6176C10.18 13.6517 7.95092 12.3156 6.18541 10.5569C4.40627 8.78464 3.00886 6.48065 3.04294 4.74243C3.05658 3.99261 3.32243 3.34504 3.85412 2.88151C3.90184 2.84061 3.93592 2.80653 3.98364 2.77245C4.18814 2.59522 4.40627 2.49978 4.60395 2.49978C4.80164 2.49978 4.97887 2.57477 5.10838 2.77926L6.43081 4.76288C6.57396 4.97419 6.58759 5.21277 6.37628 5.42408L5.77641 6.02394C5.30607 6.49428 5.34015 7.06687 5.68098 7.52358C6.06953 8.04845 6.74438 8.81191 7.26926 9.32996C7.78732 9.85484 8.61213 10.591 9.14383 10.9864C9.60055 11.3272 10.1731 11.3613 10.6435 10.891L11.2434 10.2911C11.4547 10.0798 11.6864 10.0934 11.9046 10.2297L13.8882 11.5522C14.0927 11.6885 14.1677 11.8589 14.1677 12.0634C14.1677 12.2611 14.0723 12.4792 13.895 12.6837C13.8541 12.7314 13.8269 12.7655 13.786 12.8132C13.3224 13.3449 12.6748 13.6039 11.9182 13.6176Z" fill="#7B8E98"/>
    </g>
</svg>
