<svg width="16" height="16" viewBox="0 0 16 16" fill="none" xmlns="http://www.w3.org/2000/svg">
    <g id="Icons / ic-star">
        <path id="Star" fill-rule="evenodd" clip-rule="evenodd" d="M12.1108 14.2238C12.357 14.0388 12.411 13.7344 12.2609 13.3047L11.0061 9.58649L14.2121 7.30066C14.5844 7.03806 14.7345 6.75756 14.6384 6.46511C14.5424 6.17267 14.2602 6.02943 13.7979 6.0354L9.86538 6.06524L8.67062 2.32914C8.52652 1.89346 8.31039 1.66667 7.99819 1.66667C7.69199 1.66667 7.47586 1.89346 7.33177 2.32914L6.13701 6.06524L2.2045 6.0354C1.74221 6.02943 1.46003 6.17267 1.36397 6.46511C1.26191 6.75756 1.418 7.03806 1.79024 7.30066L4.99628 9.58649L3.74148 13.3047C3.59139 13.7344 3.64542 14.0388 3.89158 14.2238C4.13773 14.4148 4.44993 14.3491 4.82217 14.0806L7.99819 11.7589L11.1802 14.0806C11.5524 14.3491 11.8586 14.4148 12.1108 14.2238ZM11.1923 13.0361L8.30446 10.8458C8.11234 10.6966 7.8902 10.6966 7.69808 10.8458L4.81024 13.0361C4.78622 13.054 4.76821 13.06 4.75621 13.0481C4.7442 13.0302 4.7502 13.0242 4.75621 12.9884L5.95097 9.58053C6.03502 9.34777 5.98699 9.15678 5.77685 9.01355L2.78695 6.96048C2.75693 6.94257 2.75093 6.93064 2.75693 6.9187C2.76294 6.9008 2.77495 6.9008 2.81097 6.9008L6.44328 6.96048C6.68944 6.96645 6.84553 6.87096 6.92358 6.62626L7.96825 3.17066C7.97425 3.13485 7.98626 3.12292 7.99827 3.12292C8.01628 3.12292 8.02829 3.13485 8.03429 3.17066L9.07895 6.62626C9.157 6.87096 9.3131 6.96645 9.55926 6.96048L13.1916 6.9008C13.2276 6.9008 13.2396 6.9008 13.2456 6.9187C13.2516 6.93064 13.2396 6.94257 13.2156 6.96048L10.2257 9.01355C10.0155 9.15678 9.96752 9.34777 10.0516 9.58053L11.2463 12.9884C11.2523 13.0242 11.2583 13.0302 11.2463 13.0481C11.2343 13.06 11.2163 13.054 11.1923 13.0361Z" fill="#CFD8DC"/>
    </g>
</svg>
