<svg width="24" height="24" viewBox="0 0 24 24" fill="none" xmlns="http://www.w3.org/2000/svg">
    <g id="Icons / ic-search">
        <path id="Search" fill-rule="evenodd" clip-rule="evenodd" d="M19.0568 20C19.6091 20 20 19.5792 20 19.0405C20 18.788 19.915 18.5523 19.7281 18.3672L15.726 14.3945C16.5672 13.3004 17.0685 11.9453 17.0685 10.4724C17.0685 6.91215 14.1285 4 10.5343 4C6.93999 4 4 6.91215 4 10.4724C4 14.0326 6.93999 16.9448 10.5343 16.9448C11.9533 16.9448 13.2618 16.4903 14.3324 15.7328L18.3601 19.7223C18.547 19.9074 18.7934 20 19.0568 20ZM10.5343 15.5476C7.73022 15.5476 5.41052 13.2499 5.41052 10.4724C5.41052 7.6949 7.73022 5.39716 10.5343 5.39716C13.3383 5.39716 15.658 7.6949 15.658 10.4724C15.658 13.2499 13.3383 15.5476 10.5343 15.5476Z" fill="#7B8E98"/>
        <path id="Plus" fill-rule="evenodd" clip-rule="evenodd" d="M10.5 14C10.914 14 11.2491 13.6639 11.2491 13.2826V11.2368H13.2575C13.6583 11.2368 14 10.9072 14 10.5C14 10.0993 13.6583 9.76322 13.2575 9.76322H11.2491V7.71739C11.2491 7.32961 10.914 7 10.5 7C10.0926 7 9.7509 7.32961 9.7509 7.71739V9.76322H7.74253C7.35484 9.76322 7 10.0993 7 10.5C7 10.9072 7.35484 11.2368 7.74253 11.2368H9.7509V13.2826C9.7509 13.6639 10.0926 14 10.5 14Z" fill="#7B8E98"/>
    </g>
</svg>
