<svg width="32" height="32" viewBox="0 0 32 32" fill="none" xmlns="http://www.w3.org/2000/svg">
    <g id="Icons / ic-truck">
        <path id="Truck" fill-rule="evenodd" clip-rule="evenodd" d="M29.1629 15.3535L25.0939 9.09818C24.9014 8.80223 24.5739 8.62396 24.2228 8.62396H19.161V6.38385C19.161 5.80401 18.6946 5.33398 18.1193 5.33398H3.70841C3.1331 5.33398 2.66675 5.80401 2.66675 6.38385V23.5177C2.66675 24.0976 3.1331 24.5676 3.70841 24.5676H7.01258C7.44258 25.7895 8.60045 26.6673 9.95842 26.6673C11.3164 26.6673 12.4742 25.7895 12.9042 24.5676H20.2598C20.6898 25.7895 21.8477 26.6673 23.2057 26.6673C24.5636 26.6673 25.7214 25.7895 26.1515 24.5676H28.2917C28.8671 24.5676 29.3334 24.0976 29.3334 23.5177V15.9291C29.3334 15.7246 29.2741 15.5245 29.1629 15.3535ZM9.95842 24.5678C9.38404 24.5678 8.91675 24.0969 8.91675 23.518C8.91675 22.9391 9.38404 22.4681 9.95842 22.4681C10.5328 22.4681 11.0001 22.9391 11.0001 23.518C11.0001 24.0969 10.5328 24.5678 9.95842 24.5678ZM17.0776 22.4684H12.9042C12.4742 21.2464 11.3163 20.3686 9.95836 20.3686C8.60039 20.3686 7.44258 21.2464 7.01253 22.4684H4.75008V7.43424H17.0776V22.4684ZM23.2056 24.5678C22.6313 24.5678 22.164 24.0969 22.164 23.518C22.164 22.9391 22.6313 22.4681 23.2056 22.4681C23.78 22.4681 24.2473 22.9391 24.2473 23.518C24.2473 24.0969 23.78 24.5678 23.2056 24.5678ZM27.2501 22.4675H26.1514C25.7214 21.2455 24.5635 20.3677 23.2056 20.3677C21.8476 20.3677 20.6898 21.2455 20.2597 22.4675H19.1609V10.7233H23.6601L27.2501 16.2422V22.4675Z" fill="#7B8E98"/>
    </g>
</svg>
